:SAMPLES-PER-SECOND 30
:FULLY-SPECIFIED
:DEGREES
1132
root  -78.9714 40.8775 1.09571 -172.307 -70.958 170.826
RightUpLeg  -7.75941 -15.274 -2.67372
RightLeg  14.0149 -9.84147 -0.693594
RightFoot  -3.34385 0.279632 -4.31171
RightToes  -1.74624e-010 0 -3.6325e-017
Spine  0.187339 -1.44511 -2.52133
Spine1  5.34397 -0.788461 -2.6423
HEad  -17.0902 -13.1827 -2.01006
LeftShoulder1  -0.762803 5.49676 -32.1677
LeftArm  2.79655 8.92768 -34.9227
LeftForeArm  18.7008 -23.8138 -4.112
LeftHand  -0.0253443 7.51366 0.77654
RightShoulder  -1.3671 -6.96887 32.8903
RightArm  10.5521 -10.8181 42.3383
RightForeArm  17.2964 11.5981 5.00926
RightHand  0.0392486 3.13575 0.301859
LeftUpLeg  -0.3719 6.64226 0.115815
LeftLeg  7.58343 9.30391 0.286466
LeftFoot  -4.48733 -0.0589933 1.43763
LeftToes  2.27646e-009 -8.13696e-011 -1.44715e-011
1133
root  -79.0686 40.8041 0.928508 -175.506 -67.8109 173.884
RightUpLeg  -7.30957 -12.3759 -1.83378
RightLeg  13.6888 -9.06931 -0.0705998
RightFoot  -3.40763 0.260344 -4.08268
RightToes  -1.74624e-010 0 -3.6325e-017
Spine  1.41124 -0.857595 0.432006
Spine1  3.23358 -0.0134296 -3.49808
HEad  -17.5754 -15.17 -2.71224
LeftShoulder1  -0.650087 5.17787 -32.7456
LeftArm  1.65945 9.81212 -35.0057
LeftForeArm  19.5397 -22.6412 -4.00588
LeftHand  -0.0151793 7.11038 1.47063
RightShoulder  -1.23732 -6.69569 32.0839
RightArm  11.1674 -10.1663 44.0277
RightForeArm  17.3146 13.5193 4.76455
RightHand  0.0449955 2.9519 0.389158
LeftUpLeg  -0.746292 8.83735 1.20491
LeftLeg  10.3829 10.2327 1.22798
LeftFoot  -6.01405 0.00994312 0.536133
LeftToes  2.27646e-009 -8.13696e-011 -1.44715e-011
1134
root  -79.1871 40.6805 0.832174 179.467 -64.475 178.209
RightUpLeg  -6.28339 -10.4704 -0.238748
RightLeg  13.7942 -7.48877 0.535247
RightFoot  -3.54972 0.281043 -4.47363
RightToes  -1.74624e-010 0 -3.6325e-017
Spine  1.55253 -1.06687 5.50474
Spine1  4.99428 0.692852 -7.14564
HEad  -20.327 -15.8396 -2.10248
LeftShoulder1  -0.728857 5.48682 -30.555
LeftArm  -0.229455 9.40547 -37.0975
LeftForeArm  20.3279 -20.6395 -4.18415
LeftHand  -0.0235956 7.2071 0.914043
RightShoulder  -1.6165 -7.39046 35.0815
RightArm  16.0178 -5.0414 43.6702
RightForeArm  15.2042 15.5965 5.16099
RightHand  0.0841575 3.86351 0.795049
LeftUpLeg  -1.56423 12.1997 3.12491
LeftLeg  15.77 9.74252 3.16414
LeftFoot  -7.88586 0.0843376 -1.24598
LeftToes  2.27646e-009 -8.13696e-011 -1.44715e-011
1135
root  -79.2756 40.536 0.730179 177.8 -60.9347 179.65
RightUpLeg  -6.47035 -9.12664 0.892368
RightLeg  14.8009 -5.45547 0.58593
RightFoot  -4.14519 0.267333 -4.6982
RightToes  -1.74624e-010 0 -3.6325e-017
Spine  2.55808 -0.870146 7.48492
Spine1  4.16966 1.0061 -7.24398
HEad  -21.6463 -19.1178 -2.95505
LeftShoulder1  -0.615758 5.19184 -30.3365
LeftArm  -1.88272 10.251 -38.1434
LeftForeArm  21.785 -18.7362 -4.64498
LeftHand  -0.0272899 6.7902 0.826159
RightShoulder  -1.48646 -7.15396 34.1824
RightArm  20.2197 -3.52559 44.7609
RightForeArm  12.2231 19.761 4.59344
RightHand  0.0563769 3.80166 0.45603
LeftUpLeg  -4.00469 12.6469 4.06303
LeftLeg  22.861 11.1711 5.49568
LeftFoot  -8.09876 0.184653 -4.56402
LeftToes  2.27646e-009 -8.13696e-011 -1.44715e-011
1136
root  -79.3243 40.401 0.658085 177.408 -57.6538 -179.871
RightUpLeg  -7.16194 -8.2709 1.6315
RightLeg  15.9262 -3.3482 0.829841
RightFoot  -4.64416 0.279719 -5.30437
RightToes  -1.74624e-010 0 -3.6325e-017
Spine  3.10842 -0.900271 7.95119
Spine1  3.70592 0.805247 -5.94595
HEad  -22.9242 -27.2115 -4.92766
LeftShoulder1  -0.50912 4.88388 -30.7294
LeftArm  -1.38705 10.2215 -38.1412
LeftForeArm  23.045 -16.3349 -5.60569
LeftHand  -0.0492201 7.56014 -0.420045
RightShoulder  -1.4175 -7.01053 33.8729
RightArm  22.1448 -1.64475 45.072
RightForeArm  11.8294 24.516 4.54745
RightHand  0.016771 4.67961 -0.103279
LeftUpLeg  -7.34234 11.9651 4.4467
LeftLeg  30.3877 12.4651 8.11705
LeftFoot  -6.3892 0.249408 -5.42211
LeftToes  2.27646e-009 -8.13696e-011 -1.44715e-011
